<!DOCTYPE svg PUBLIC "-//W3C//DTD SVG 1.1//EN" "http://www.w3.org/Graphics/SVG/1.1/DTD/svg11.dtd">
<!-- Uploaded to: SVG Repo, www.svgrepo.com, Transformed by: SVG Repo Mixer Tools -->
<svg version="1.0" id="Layer_1" xmlns="http://www.w3.org/2000/svg" xmlns:xlink="http://www.w3.org/1999/xlink" width="156px" height="156px" viewBox="0 0 64 64" enable-background="new 0 0 64 64" xml:space="preserve" fill="#000000" stroke="#000000" stroke-width="0.00064">
<g id="SVGRepo_bgCarrier" stroke-width="0"/>
<g id="SVGRepo_tracerCarrier" stroke-linecap="round" stroke-linejoin="round"/>
<g id="SVGRepo_iconCarrier"> <g> <polygon fill="#e9caa0" points="52,56 36,56 36,44 28,44 28,56 12,56 12,8 52,8 "/> <path fill="#c6942a" d="M56,0H8C5.789,0,4,1.789,4,4v56c0,2.211,1.789,4,4,4h48c2.211,0,4-1.789,4-4V4C60,1.789,58.211,0,56,0z M52,56H36V44h-8v12H12V8h40V56z"/> <rect x="36" y="16" fill="#c6942a" width="8" height="8"/> <rect x="20" y="16" fill="#c6942a" width="8" height="8"/> <rect x="20" y="32" fill="#c6942a" width="8" height="8"/> <rect x="36" y="32" fill="#c6942a" width="8" height="8"/> </g> </g>
</svg>